<svg width="489" height="47" viewBox="0 0 489 47" fill="none" xmlns="http://www.w3.org/2000/svg">
<path d="M4.95805 35.3756V28.9366C4.95805 23.9141 4.18537 21.4673 2.06049 20.0507C1.03024 19.3424 0.643902 18.6341 0.643902 17.9902C0.643902 17.0244 1.54537 16.3161 2.64 16.3161C4.89366 16.3161 11.2039 16.2517 13.5863 15.2859C14.1015 15.0927 14.6166 14.7707 15.2605 14.32C16.4195 13.4829 17.0634 13.161 17.8361 13.161C19.3171 13.161 19.961 14.4488 19.961 17.8615V18.6985C22.4722 15.2859 26.722 13.161 31.8088 13.161C37.5395 13.161 41.7249 15.8654 43.5278 20.5659C45.5239 16.1229 49.9024 13.161 55.6976 13.161C63.5532 13.161 69.0263 18.5698 69.0263 26.4254V35.3756C69.0263 38.8527 69.9278 40.8488 71.8595 42.0722C72.8254 42.7161 73.4049 43.4888 73.4049 44.3902C73.4049 45.3561 72.6966 46 71.602 46H51.4478C50.3532 46 49.7093 45.3561 49.7093 44.3902C49.7093 43.4888 50.2888 42.7161 51.2546 42.0722C53.1863 40.8488 54.0234 38.8527 54.0234 35.3756V29.2585C54.0234 21.8537 52.8 18.5698 50.0956 18.5698C47.0049 18.5698 44.5581 22.9483 44.5581 26.4254V35.3756C44.5581 38.8527 45.4595 40.8488 47.3912 42.0722C48.3571 42.7161 48.9366 43.4888 48.9366 44.3902C48.9366 45.3561 48.2283 46 47.1337 46H26.9795C25.8849 46 25.241 45.3561 25.241 44.3902C25.241 43.4888 25.8205 42.7161 26.7863 42.0722C28.718 40.8488 29.5551 38.8527 29.5551 35.3756V29.2585C29.5551 21.7893 28.2673 18.5698 25.241 18.5698C22.279 18.5698 19.961 21.5317 19.961 24.88V35.3756C19.961 38.8527 20.8624 40.8488 22.7941 42.0722C23.76 42.7161 24.3395 43.4888 24.3395 44.3902C24.3395 45.3561 23.6312 46 22.5366 46H2.38244C1.2878 46 0.643902 45.3561 0.643902 44.3902C0.643902 43.4888 1.22341 42.7161 2.18927 42.0722C4.12098 40.8488 4.95805 38.8527 4.95805 35.3756ZM71.5034 29.9668C71.5034 20.759 80.518 13.161 91.7863 13.161C102.604 13.161 112.134 20.3083 112.134 29.5161C112.134 38.7239 102.604 46.6439 91.5287 46.6439C80.8399 46.6439 71.5034 39.239 71.5034 29.9668ZM93.3316 42.7805C95.9073 42.7805 97.3238 39.561 97.3238 33.122C97.3238 24.0429 94.5551 17.0244 90.8848 17.0244C88.116 17.0244 86.3131 21.081 86.3131 27.4556C86.3131 35.8907 89.4682 42.7805 93.3316 42.7805ZM139.926 38.2732C139.411 43.1024 134.453 46.6439 128.336 46.6439C119.45 46.6439 112.753 39.1746 112.753 29.7737C112.753 20.3083 119.514 13.161 128.207 13.161C133.745 13.161 138.509 15.6722 139.862 19.2137V5.0478C139.862 1.63512 140.377 0.347314 141.858 0.347314C142.63 0.347314 143.274 0.669265 144.498 1.50634C145.142 1.95707 145.657 2.27902 146.172 2.47219C148.619 3.50244 154.865 3.50244 157.054 3.50244C158.148 3.50244 159.114 4.21073 159.114 5.17659C159.114 5.82049 158.728 6.52878 157.698 7.23707C155.508 8.65366 154.865 11.1005 154.865 16.1229V35.3756C154.865 38.8527 155.702 40.8488 157.633 42.0722C158.599 42.7161 159.179 43.4888 159.179 44.3902C159.179 45.3561 158.535 46 157.44 46H139.025C138.188 46 137.479 45.2273 137.479 44.3902C137.479 43.4888 138.252 42.7161 138.831 42.0722C139.862 40.9776 139.99 39.8829 139.926 38.2732ZM138.831 29.5805C138.831 23.9141 136.578 19.9863 133.229 19.9863C129.881 19.9863 127.756 23.8498 127.756 29.3873C127.756 35.3112 130.139 39.8185 133.358 39.8185C136.578 39.8185 138.831 35.3112 138.831 29.5805ZM173.034 27.5844C173.034 27.842 174.321 28.0351 175.674 28.0351C180.632 28.0351 184.044 25.5239 184.044 22.3044C184.044 20.4371 182.885 19.4068 180.825 19.4068C177.283 19.4068 174.064 22.4976 173.034 27.5844ZM172.647 30.6751C172.647 35.44 175.481 38.9171 181.726 38.9171C186.878 38.9171 190.548 36.5346 191.578 32.6068L193.767 33.3795C191.449 42.6517 186.556 46.6439 177.541 46.6439C165.886 46.6439 157.902 40.0117 157.902 30.2244C157.902 19.8576 166.917 13.161 176.704 13.161C184.688 13.161 191.385 17.6039 191.385 22.8839C191.385 28.0351 187.071 31.4478 177.605 31.4478C176.124 31.4478 174.386 31.1902 172.647 30.6751ZM197.437 35.3756V28.9366C197.437 23.9141 196.664 21.4673 194.54 20.0507C193.509 19.3424 193.123 18.6341 193.123 17.9902C193.123 17.0244 194.024 16.3161 195.119 16.3161C197.373 16.3161 203.683 16.2517 206.13 15.2859C206.645 15.0927 207.16 14.7707 207.804 14.32C208.963 13.4829 209.607 13.161 210.38 13.161C211.925 13.161 212.569 14.5776 212.569 17.8615V19.278C215.531 15.1571 218.75 13.161 222.549 13.161C227.185 13.161 231.886 16.2517 231.886 21.3385C231.886 24.7512 229.761 27.0693 226.413 27.0693C223.966 27.0693 221.777 25.8459 221.39 22.6907C221.068 20.0507 220.489 18.8273 219.523 18.8273C218.428 18.8273 216.368 20.8234 214.372 23.8498L212.44 26.7473V35.3756C212.44 38.8527 213.341 40.8488 215.273 42.0722C216.239 42.7161 216.819 43.4888 216.819 44.3902C216.819 45.3561 216.11 46 215.016 46H194.861C193.767 46 193.123 45.3561 193.123 44.3902C193.123 43.4888 193.702 42.7161 194.668 42.0722C196.6 40.8488 197.437 38.8527 197.437 35.3756ZM236.235 35.3756V28.9366C236.235 23.9141 235.462 21.4673 233.337 20.0507C232.307 19.3424 231.921 18.6341 231.921 17.9902C231.921 17.0244 232.822 16.3161 233.917 16.3161C236.17 16.3161 242.481 16.2517 244.927 15.2859C245.443 15.0927 245.958 14.7707 246.602 14.32C247.761 13.4829 248.404 13.161 249.177 13.161C250.658 13.161 251.238 14.4488 251.238 17.8615V18.7629C253.684 15.3502 257.999 13.161 263.085 13.161C270.941 13.161 275.77 18.2478 275.77 26.4254V35.3756C275.77 38.8527 276.672 40.8488 278.604 42.0722C279.569 42.7161 280.149 43.4888 280.149 44.3902C280.149 45.3561 279.441 46 278.346 46H258.192C257.097 46 256.453 45.3561 256.453 44.3902C256.453 43.4888 257.033 42.7161 257.999 42.0722C259.93 40.8488 260.767 38.8527 260.767 35.3756V29.2585C260.767 21.7249 259.48 18.5698 256.453 18.5698C253.427 18.5698 251.238 21.6605 251.238 25.8459V35.3756C251.238 38.8527 252.139 40.8488 254.071 42.0722C255.037 42.7161 255.616 43.4888 255.616 44.3902C255.616 45.3561 254.908 46 253.813 46H233.659C232.564 46 231.921 45.3561 231.921 44.3902C231.921 43.4888 232.5 42.7161 233.466 42.0722C235.398 40.8488 236.235 38.8527 236.235 35.3756Z" fill="#00291B"/>
<path d="M305.027 35.3756V28.9366C305.027 23.9141 304.254 21.4673 302.129 20.0507C301.099 19.3424 300.713 18.6341 300.713 17.9902C300.713 17.0244 301.614 16.3161 302.709 16.3161C304.962 16.3161 311.273 16.2517 313.655 15.2859C314.17 15.0927 314.685 14.7707 315.329 14.32C316.488 13.4829 317.132 13.161 317.905 13.161C319.386 13.161 320.03 14.4488 320.03 17.8615V18.6985C322.541 15.2859 326.791 13.161 331.877 13.161C337.608 13.161 341.793 15.8654 343.596 20.5659C345.593 16.1229 349.971 13.161 355.766 13.161C363.622 13.161 369.095 18.5698 369.095 26.4254V35.3756C369.095 38.8527 369.996 40.8488 371.928 42.0722C372.894 42.7161 373.473 43.4888 373.473 44.3902C373.473 45.3561 372.765 46 371.671 46H351.516C350.422 46 349.778 45.3561 349.778 44.3902C349.778 43.4888 350.357 42.7161 351.323 42.0722C353.255 40.8488 354.092 38.8527 354.092 35.3756V29.2585C354.092 21.8537 352.869 18.5698 350.164 18.5698C347.073 18.5698 344.627 22.9483 344.627 26.4254V35.3756C344.627 38.8527 345.528 40.8488 347.46 42.0722C348.426 42.7161 349.005 43.4888 349.005 44.3902C349.005 45.3561 348.297 46 347.202 46H327.048C325.953 46 325.31 45.3561 325.31 44.3902C325.31 43.4888 325.889 42.7161 326.855 42.0722C328.787 40.8488 329.624 38.8527 329.624 35.3756V29.2585C329.624 21.7893 328.336 18.5698 325.31 18.5698C322.348 18.5698 320.03 21.5317 320.03 24.88V35.3756C320.03 38.8527 320.931 40.8488 322.863 42.0722C323.829 42.7161 324.408 43.4888 324.408 44.3902C324.408 45.3561 323.7 46 322.605 46H302.451C301.356 46 300.713 45.3561 300.713 44.3902C300.713 43.4888 301.292 42.7161 302.258 42.0722C304.19 40.8488 305.027 38.8527 305.027 35.3756ZM412.635 17.8615V35.3756C412.635 38.8527 413.537 40.8488 415.468 42.0722C416.434 42.7161 417.014 43.4888 417.014 44.3902C417.014 45.3561 416.306 46 415.211 46H401.109C399.242 46 398.083 44.3902 397.697 41.4927C395.379 44.9698 391.387 46.6439 386.557 46.6439C378.122 46.6439 372.971 42.5873 372.971 36.0195V28.9366C372.971 23.2059 372.585 21.081 371.361 19.9219C370.138 18.7629 369.945 18.2478 369.945 17.7971C369.945 16.8312 370.846 16.3161 371.941 16.3161C374.194 16.3161 379.346 16.3161 381.728 15.2859C382.243 15.0927 382.758 14.7707 383.338 14.3844C384.626 13.4185 385.334 13.161 386.042 13.161C387.588 13.161 388.103 14.4488 388.103 17.8615V30.5463C388.103 37.3717 389.712 41.2351 392.932 41.2351C395.701 41.2351 397.632 38.3376 397.632 33.2507V29.3873C397.632 23.6566 397.246 21.081 396.023 19.9219C394.799 18.7629 394.606 18.2478 394.606 17.7971C394.606 16.8312 395.508 16.3161 396.602 16.3161C398.856 16.3161 404.007 16.3161 406.389 15.2859C406.905 15.0927 407.42 14.7707 407.999 14.3844C409.287 13.4185 409.995 13.161 410.704 13.161C412.249 13.161 412.635 14.4488 412.635 17.8615ZM440.321 25.3307C448.112 29.001 451.975 32.478 451.975 37.2429C451.975 42.7161 446.888 46.6439 435.878 46.6439C423.772 46.6439 415.337 41.9434 415.337 35.762C415.337 32.8644 417.205 30.8683 420.424 30.8683C423.515 30.8683 425.833 32.6712 425.833 36.4059C425.833 40.72 428.859 42.9737 432.529 42.9737C435.105 42.9737 436.2 41.879 436.2 40.0117C436.2 37.9512 434.783 36.5346 428.666 33.3795C420.36 29.001 417.72 26.361 417.72 22.1756C417.72 16.4449 423.708 13.161 432.98 13.161C442.639 13.161 450.623 16.7668 450.623 21.5317C450.623 23.5922 449.142 26.4254 445.407 26.4254C441.93 26.4254 440.127 23.9141 440.127 21.2741C440.127 18.3766 437.938 16.8312 435.427 16.8312C433.817 16.8312 432.594 17.4751 432.594 19.0849C432.594 21.2098 434.847 22.7551 440.321 25.3307ZM467.443 27.5844C467.443 27.842 468.731 28.0351 470.083 28.0351C475.041 28.0351 478.454 25.5239 478.454 22.3044C478.454 20.4371 477.295 19.4068 475.234 19.4068C471.693 19.4068 468.473 22.4976 467.443 27.5844ZM467.057 30.6751C467.057 35.44 469.89 38.9171 476.136 38.9171C481.287 38.9171 484.957 36.5346 485.987 32.6068L488.177 33.3795C485.859 42.6517 480.965 46.6439 471.95 46.6439C460.296 46.6439 452.311 40.0117 452.311 30.2244C452.311 19.8576 461.326 13.161 471.113 13.161C479.098 13.161 485.794 17.6039 485.794 22.8839C485.794 28.0351 481.48 31.4478 472.015 31.4478C470.534 31.4478 468.795 31.1902 467.057 30.6751Z" fill="#944131"/>
</svg>
